<svg width="36" height="36" viewBox="0 0 36 36" fill="none" xmlns="http://www.w3.org/2000/svg">
<path d="M13.5 24.3L8.25002 19.05C8.11274 18.9111 7.94924 18.8007 7.769 18.7254C7.58876 18.6501 7.39536 18.6114 7.20002 18.6114C7.00469 18.6114 6.81129 18.6501 6.63105 18.7254C6.45081 18.8007 6.28731 18.9111 6.15002 19.05C6.01106 19.1873 5.90074 19.3508 5.82544 19.531C5.75014 19.7113 5.71136 19.9047 5.71136 20.1C5.71136 20.2953 5.75014 20.4887 5.82544 20.669C5.90074 20.8492 6.01106 21.0127 6.15002 21.15L12.435 27.435C13.02 28.02 13.965 28.02 14.55 27.435L30.45 11.55C30.589 11.4127 30.6993 11.2492 30.7746 11.069C30.8499 10.8887 30.8887 10.6953 30.8887 10.5C30.8887 10.3047 30.8499 10.1113 30.7746 9.93104C30.6993 9.7508 30.589 9.5873 30.45 9.45001C30.3127 9.31105 30.1492 9.20072 29.969 9.12543C29.7888 9.05013 29.5954 9.01135 29.4 9.01135C29.2047 9.01135 29.0113 9.05013 28.8311 9.12543C28.6508 9.20072 28.4873 9.31105 28.35 9.45001L13.5 24.3Z" fill="white"/>
</svg>
