<svg width="46" height="46" viewBox="0 0 46 46" fill="none" xmlns="http://www.w3.org/2000/svg">
<path d="M25.5185 22.8084L32.2939 16.031C32.477 15.8542 32.623 15.6427 32.7235 15.4089C32.8239 15.175 32.8768 14.9235 32.879 14.669C32.8812 14.4145 32.8327 14.1622 32.7363 13.9266C32.64 13.6911 32.4977 13.4771 32.3177 13.2971C32.1377 13.1171 31.9237 12.9748 31.6882 12.8784C31.4526 12.7821 31.2002 12.7336 30.9458 12.7358C30.6913 12.738 30.4398 12.7909 30.2059 12.8913C29.9721 12.9918 29.7606 13.1378 29.5838 13.3209L22.8064 20.0963L16.031 13.3209C15.8542 13.1378 15.6427 12.9918 15.4089 12.8913C15.175 12.7909 14.9235 12.738 14.669 12.7358C14.4145 12.7336 14.1622 12.7821 13.9266 12.8784C13.6911 12.9748 13.4771 13.1171 13.2971 13.2971C13.1171 13.4771 12.9748 13.6911 12.8784 13.9266C12.7821 14.1622 12.7336 14.4145 12.7358 14.669C12.738 14.9235 12.7909 15.175 12.8913 15.4089C12.9918 15.6427 13.1378 15.8542 13.3209 16.031L20.0963 22.8064L13.3209 29.5838C13.1378 29.7606 12.9918 29.9721 12.8913 30.2059C12.7909 30.4398 12.738 30.6913 12.7358 30.9458C12.7336 31.2002 12.7821 31.4526 12.8784 31.6882C12.9748 31.9237 13.1171 32.1377 13.2971 32.3177C13.4771 32.4977 13.6911 32.64 13.9266 32.7363C14.1622 32.8327 14.4145 32.8812 14.669 32.879C14.9235 32.8768 15.175 32.8239 15.4089 32.7235C15.6427 32.623 15.8542 32.477 16.031 32.2939L22.8064 25.5185L29.5838 32.2939C29.7606 32.477 29.9721 32.623 30.2059 32.7235C30.4398 32.8239 30.6913 32.8768 30.9458 32.879C31.2002 32.8812 31.4526 32.8327 31.6882 32.7363C31.9237 32.64 32.1377 32.4977 32.3177 32.3177C32.4977 32.1377 32.64 31.9237 32.7363 31.6882C32.8327 31.4526 32.8812 31.2002 32.879 30.9458C32.8768 30.6913 32.8239 30.4398 32.7235 30.2059C32.623 29.9721 32.477 29.7606 32.2939 29.5838L25.5185 22.8064V22.8084Z" fill="white"/>
</svg>
