<svg width="156" height="156" viewBox="0 0 156 156" fill="none" xmlns="http://www.w3.org/2000/svg">
<path fill-rule="evenodd" clip-rule="evenodd" d="M156 78C156 121.078 121.078 156 78 156C34.9218 156 0 121.078 0 78C0 34.9218 34.9218 0 78 0C121.078 0 156 34.9218 156 78ZM79 42C81.7614 42 84 44.2386 84 47V72H110C112.761 72 115 74.2386 115 77C115 79.7614 112.761 82 110 82H84V110C84 112.761 81.7614 115 79 115C76.2386 115 74 112.761 74 110V82H47C44.2386 82 42 79.7614 42 77C42 74.2386 44.2386 72 47 72H74V47C74 44.2386 76.2386 42 79 42Z" fill="#ddd"/>
</svg>
