<svg width="42" height="42" viewBox="0 0 42 42" fill="none" xmlns="http://www.w3.org/2000/svg">
<path d="M25.5373 22.8261L30.9616 17.4037C31.1397 17.2255 31.281 17.0141 31.3774 16.7813C31.4738 16.5485 31.5235 16.2991 31.5235 16.0471C31.5235 15.7952 31.4738 15.5457 31.3774 15.313C31.281 15.0802 31.1397 14.8687 30.9616 14.6906C30.7834 14.5124 30.5719 14.3711 30.3392 14.2747C30.1064 14.1783 29.8569 14.1287 29.605 14.1287C29.3531 14.1287 29.1036 14.1783 28.8708 14.2747C28.6381 14.3711 28.4266 14.5124 28.2485 14.6906L22.8261 20.1149L17.4037 14.6906C17.0439 14.3308 16.5559 14.1287 16.0471 14.1287C15.5383 14.1287 15.0504 14.3308 14.6906 14.6906C14.3308 15.0504 14.1287 15.5383 14.1287 16.0471C14.1287 16.2991 14.1783 16.5485 14.2747 16.7813C14.3711 17.0141 14.5124 17.2255 14.6906 17.4037L20.1149 22.8261L14.6906 28.2485C14.3308 28.6082 14.1287 29.0962 14.1287 29.605C14.1287 30.1138 14.3308 30.6018 14.6906 30.9616C15.0504 31.3213 15.5383 31.5235 16.0471 31.5235C16.5559 31.5235 17.0439 31.3213 17.4037 30.9616L22.8261 25.5373L28.2485 30.9616C28.6082 31.3213 29.0962 31.5235 29.605 31.5235C30.1138 31.5235 30.6018 31.3213 30.9616 30.9616C31.3213 30.6018 31.5235 30.1138 31.5235 29.605C31.5235 29.0962 31.3213 28.6082 30.9616 28.2485L25.5373 22.8261ZM22.8261 42C12.2363 42 3.65216 33.4158 3.65216 22.8261C3.65216 12.2363 12.2363 3.65216 22.8261 3.65216C33.4158 3.65216 42 12.2363 42 22.8261C42 33.4158 33.4158 42 22.8261 42Z" fill="white"/>
</svg>
