<svg width="38" height="38" viewBox="0 0 38 38" fill="none" xmlns="http://www.w3.org/2000/svg">
<path d="M6.4391 13.5147L8.531 34.2399C8.6469 35.1158 12.8763 37.9962 19 38C25.1275 37.9962 29.3569 35.1158 29.4709 34.2399L31.5647 13.5147C28.3651 15.3045 23.5828 16.15 19 16.15C14.421 16.15 9.6368 15.3045 6.4391 13.5147ZM25.0192 2.869L23.3871 1.0621C22.7563 0.1634 22.0723 0 20.7404 0H17.2615C15.9315 0 15.2456 0.1634 14.6167 1.0621L12.9846 2.869C8.1016 3.7221 4.56 5.985 4.56 7.6551V7.9781C4.56 10.9174 11.0257 13.3 19 13.3C26.9762 13.3 33.4419 10.9174 33.4419 7.9781V7.6551C33.4419 5.985 29.9022 3.7221 25.0192 2.869ZM22.933 8.246L20.9 5.7H17.1L15.0708 8.246H11.8408C11.8408 8.246 15.3786 4.0261 15.8517 3.4542C16.2127 3.0172 16.5813 2.85 17.0601 2.85H20.9418C21.4225 2.85 21.7911 3.0172 22.1521 3.4542C22.6233 4.0261 26.163 8.246 26.163 8.246H22.933Z" fill="white"/>
</svg>
